#!OML:ASF E:\motion texture\Top Level 1\Subject 1\Session 1\male.ASF
:FULLY-SPECIFIED
:DEGREES
779
root -50.3359 17.7306 2.34224 419.77 -89.5189 -416.678
lowerback -3.40758 0.707225 1.18291
upperback -1.97928 0.861329 1.93295
thorax -0.131519 0.41274 1.34547
lowerneck -15.8189 6.57322 0.337483
upperneck 29.5404 9.66262 -2.40903
head 12.5681 3.78476 0.461791
rclavicle 2.83268e-015 -1.35174e-014
rhumerus 10.6117 17.3214 -77.7027
rradius 70.6156
rwrist -15.4819
rhand -18.3297 -29.4436
rfingers 7.12502
rthumb 7.95212 -419.274
lclavicle 2.83268e-015 -1.35174e-014
lhumerus -4.67401 7.43085 87.5954
lradius 56.2541
lwrist 43.1932
lhand 1.12438 41.9308
lfingers 7.12502
lthumb 26.6669 70.0723
rfemur -9.86514 -3.44108 17.0165
rtibia 59.018
rfoot 18.9267 -6.2739
rtoes 5.23056
lfemur -27.8667 -0.745767 -8.45315
ltibia 17.2
lfoot -4.81041 8.1304
ltoes -12.8002
780
root -50.4752 17.7419 2.35871 366.884 -89.7482 -363.971
lowerback -3.20656 0.550529 0.918872
upperback -1.89815 0.667313 1.84979
thorax -0.159749 0.319241 1.40023
lowerneck -15.8119 6.62661 0.37622
upperneck 30.2505 9.75156 -2.46835
head 12.8665 3.77896 0.454618
rclavicle -6.4605e-016 4.77083e-015
rhumerus 10.6117 17.3214 -77.7027
rradius 70.6156
rwrist -15.4819
rhand -18.3297 -29.4436
rfingers 7.12502
rthumb 7.95212 -419.274
lclavicle -6.4605e-016 4.77083e-015
lhumerus -4.67401 7.43085 87.5954
lradius 56.2541
lwrist 43.1932
lhand 1.12438 41.9308
lfingers 7.12502
lthumb 26.6669 70.0723
rfemur -10.9086 -3.70144 16.4299
rtibia 60.7116
rfoot 18.8992 -6.75377
rtoes 4.89908
lfemur -27.8667 -0.745767 -8.45315
ltibia 17.2
lfoot -4.81041 8.1304
ltoes -12.8002
781
root -50.6002 17.7575 2.36784 396.091 -89.803 -393.197
lowerback -3.13486 0.431602 1.04218
upperback -1.80376 0.505515 1.91907
thorax -0.09978 0.237883 1.39712
lowerneck -15.8009 6.66608 0.432355
upperneck 30.7941 9.82531 -2.57082
head 13.1032 3.7706 0.4232
rclavicle 1.88845e-015 1.82882e-014
rhumerus 10.6117 17.3214 -77.7027
rradius 70.6156
rwrist -15.4819
rhand -18.3297 -29.4436
rfingers 7.12502
rthumb 7.95212 -419.274
lclavicle 1.88845e-015 1.82882e-014
lhumerus -4.67401 7.43085 87.5954
lradius 56.2541
lwrist 43.1932
lhand 1.12438 41.9308
lfingers 7.12502
lthumb 26.6669 70.0723
rfemur -12.2569 -3.76822 16.5581
rtibia 62.4514
rfoot 18.0032 -7.46058
rtoes 4.83337
lfemur -27.8667 -0.745767 -8.45315
ltibia 17.2
lfoot -4.81041 8.1304
ltoes -12.8002
782
root -50.7363 17.7726 2.38254 379.627 -89.8237 -376.872
lowerback -3.05738 0.284204 1.10827
upperback -1.64207 0.308142 1.92972
thorax 0.0262298 0.139914 1.36505
lowerneck -15.8621 6.69892 0.468523
upperneck 31.2872 9.90121 -2.68142
head 13.3369 3.76096 0.394039
rclavicle 1.26725e-015 1.35174e-014
rhumerus 10.6117 17.3214 -77.7027
rradius 70.6156
rwrist -15.4819
rhand -18.3297 -29.4436
rfingers 7.12502
rthumb 7.95212 -419.274
lclavicle 1.26725e-015 1.35174e-014
lhumerus -4.67401 7.43085 87.5954
lradius 56.2541
lwrist 43.1932
lhand 1.12438 41.9308
lfingers 7.12502
lthumb 26.6669 70.0723
rfemur -13.3407 -4.12019 16.4025
rtibia 63.994
rfoot 16.6288 -8.15707
rtoes 5.3322
lfemur -27.8667 -0.745767 -8.45315
ltibia 17.2
lfoot -4.81041 8.1304
ltoes -12.8002
783
root -50.8546 17.7889 2.38729 435.387 -89.6714 -432.66
lowerback -2.76213 0.20091 1.32822
upperback -1.63228 0.197009 2.06723
thorax -0.126932 0.0825376 1.37845
lowerneck -15.9846 6.75041 0.567408
upperneck 31.8685 9.99912 -2.81353
head 13.6315 3.75902 0.352618
rclavicle -1.49089e-016 -3.26007e-014
rhumerus 10.6117 17.3214 -77.7027
rradius 70.6156
rwrist -15.4819
rhand -18.3297 -29.4436
rfingers 7.12502
rthumb 7.95212 -419.274
lclavicle -1.49089e-016 -3.26007e-014
lhumerus -4.67401 7.43085 87.5954
lradius 56.2541
lwrist 43.1932
lhand 1.12438 41.9308
lfingers 7.12502
lthumb 26.6669 70.0723
rfemur -14.7028 -4.28122 16.7792
rtibia 65.5395
rfoot 15.0795 -9.00396
rtoes 6.54505
lfemur -27.8667 -0.745767 -8.45315
ltibia 17.2
lfoot -4.81041 8.1304
ltoes -12.8002
784
root -50.9867 17.8049 2.39832 429.81 -89.6679 -427.211
lowerback -2.84466 -0.00363528 1.43668
upperback -1.38902 -0.0841531 2.08608
thorax 0.17242 -0.0567958 1.32933
lowerneck -15.7838 6.78692 0.703272
upperneck 32.048 10.0546 -2.99589
head 13.6894 3.76216 0.260882
rclavicle -7.70291e-016 1.51076e-014
rhumerus 10.6117 17.3214 -77.7027
rradius 70.6156
rwrist -15.4819
rhand -18.3297 -29.4436
rfingers 7.12502
rthumb 7.95212 -419.274
lclavicle -7.70291e-016 1.51076e-014
lhumerus -4.67401 7.43085 87.5954
lradius 56.2541
lwrist 43.1932
lhand 1.12438 41.9308
lfingers 7.12502
lthumb 26.6669 70.0723
rfemur -14.7028 -4.28122 16.7792
rtibia 65.5395
rfoot 15.0795 -9.00396
rtoes 6.54505
lfemur -27.8667 -0.745767 -8.45315
ltibia 17.2
lfoot -4.81041 8.1304
ltoes -12.8002
785
root -51.1098 17.8189 2.40579 443.6 -89.6136 -441.118
lowerback -2.58919 -0.104905 -0.523795
upperback -1.31293 -0.198571 3.68588
thorax 0.11887 -0.111107 4.08239
lowerneck -15.7657 6.61305 -0.302694
upperneck 32.4758 10.4386 -3.99739
head 13.9027 3.62694 0.0968889
rclavicle -1.66482e-015 2.14687e-014
rhumerus 10.6117 17.3214 -77.7027
rradius 70.6156
rwrist -15.4819
rhand -18.3297 -29.4436
rfingers 7.12502
rthumb 7.95212 -419.274
lclavicle -1.66482e-015 2.14687e-014
lhumerus -4.67401 7.43085 87.5954
lradius 56.2541
lwrist 43.1932
lhand 1.12438 41.9308
lfingers 7.12502
lthumb 26.6669 70.0723
rfemur -14.7028 -4.28122 16.7792
rtibia 65.5395
rfoot 15.0795 -9.00396
rtoes 6.54505
lfemur -27.8667 -0.745767 -8.45315
ltibia 17.2
lfoot -4.81041 8.1304
ltoes -12.8002
786
root -51.2297 17.8328 2.40967 459.386 -89.5937 -456.974
lowerback -2.34075 -0.211049 -0.42847
upperback -1.24254 -0.339261 3.67705
thorax 0.0620803 -0.181686 4.01591
lowerneck -15.8877 6.68578 -0.274816
upperneck 32.846 10.53 -3.94189
head 14.0939 3.64928 0.134764
rclavicle -1.11816e-015 4.77083e-015
rhumerus 10.6117 17.3214 -77.7027
rradius 70.6156
rwrist -15.4819
rhand -18.3297 -29.4436
rfingers 7.12502
rthumb 7.95212 -419.274
lclavicle -1.11816e-015 4.77083e-015
lhumerus -4.67401 7.43085 87.5954
lradius 56.2541
lwrist 43.1932
lhand 1.12438 41.9308
lfingers 7.12502
lthumb 26.6669 70.0723
rfemur -14.7028 -4.28122 16.7792
rtibia 65.5395
rfoot 15.0795 -9.00396
rtoes 6.54505
lfemur -27.8667 -0.745767 -8.45315
ltibia 17.2
lfoot -4.81041 8.1304
ltoes -12.8002
787
root -51.2297 17.8328 2.40967 459.386 -89.5937 -456.974
lowerback -2.34075 -0.211049 -0.42847
upperback -1.24254 -0.339261 3.67705
thorax 0.0620803 -0.181686 4.01591
lowerneck -15.8877 6.68578 -0.274816
upperneck 32.846 10.53 -3.94189
head 14.0939 3.64928 0.134764
rclavicle -1.11816e-015 4.77083e-015
rhumerus 10.6117 17.3214 -77.7027
rradius 70.6156
rwrist -15.4819
rhand -18.3297 -29.4436
rfingers 7.12502
rthumb 7.95212 -419.274
lclavicle -1.11816e-015 4.77083e-015
lhumerus -4.67401 7.43085 87.5954
lradius 56.2541
lwrist 43.1932
lhand 1.12438 41.9308
lfingers 7.12502
lthumb 26.6669 70.0723
rfemur -14.7028 -4.28122 16.7792
rtibia 65.5395
rfoot 15.0795 -9.00396
rtoes 6.54505
lfemur -27.8667 -0.745767 -8.45315
ltibia 17.2
lfoot -4.81041 8.1304
ltoes -12.8002
788
root -51.2297 17.8328 2.40967 459.386 -89.5937 -456.974
lowerback -2.34075 -0.211049 -0.42847
upperback -1.24254 -0.339261 3.67705
thorax 0.0620803 -0.181686 4.01591
lowerneck -15.8877 6.68578 -0.274816
upperneck 32.846 10.53 -3.94189
head 14.0939 3.64928 0.134764
rclavicle -1.11816e-015 4.77083e-015
rhumerus 10.6117 17.3214 -77.7027
rradius 70.6156
rwrist -15.4819
rhand -18.3297 -29.4436
rfingers 7.12502
rthumb 7.95212 -419.274
lclavicle -1.11816e-015 4.77083e-015
lhumerus -4.67401 7.43085 87.5954
lradius 56.2541
lwrist 43.1932
lhand 1.12438 41.9308
lfingers 7.12502
lthumb 26.6669 70.0723
rfemur -14.7028 -4.28122 16.7792
rtibia 65.5395
rfoot 15.0795 -9.00396
rtoes 6.54505
lfemur -27.8667 -0.745767 -8.45315
ltibia 17.2
lfoot -4.81041 8.1304
ltoes -12.8002
789
root -51.2297 17.8328 2.40967 459.386 -89.5937 -456.974
lowerback -2.34075 -0.211049 -0.42847
upperback -1.24254 -0.339261 3.67705
thorax 0.0620803 -0.181686 4.01591
lowerneck -15.8877 6.68578 -0.274816
upperneck 32.846 10.53 -3.94189
head 14.0939 3.64928 0.134764
rclavicle -1.11816e-015 4.77083e-015
rhumerus 10.6117 17.3214 -77.7027
rradius 70.6156
rwrist -15.4819
rhand -18.3297 -29.4436
rfingers 7.12502
rthumb 7.95212 -419.274
lclavicle -1.11816e-015 4.77083e-015
lhumerus -4.67401 7.43085 87.5954
lradius 56.2541
lwrist 43.1932
lhand 1.12438 41.9308
lfingers 7.12502
lthumb 26.6669 70.0723
rfemur -14.7028 -4.28122 16.7792
rtibia 65.5395
rfoot 15.0795 -9.00396
rtoes 6.54505
lfemur -27.8667 -0.745767 -8.45315
ltibia 17.2
lfoot -4.81041 8.1304
ltoes -12.8002
790
root -51.2297 17.8328 2.40967 459.386 -89.5937 -456.974
lowerback -2.34075 -0.211049 -0.42847
upperback -1.24254 -0.339261 3.67705
thorax 0.0620803 -0.181686 4.01591
lowerneck -15.8877 6.68578 -0.274816
upperneck 32.846 10.53 -3.94189
head 14.0939 3.64928 0.134764
rclavicle -1.11816e-015 4.77083e-015
rhumerus 10.6117 17.3214 -77.7027
rradius 70.6156
rwrist -15.4819
rhand -18.3297 -29.4436
rfingers 7.12502
rthumb 7.95212 -419.274
lclavicle -1.11816e-015 4.77083e-015
lhumerus -4.67401 7.43085 87.5954
lradius 56.2541
lwrist 43.1932
lhand 1.12438 41.9308
lfingers 7.12502
lthumb 26.6669 70.0723
rfemur -14.7028 -4.28122 16.7792
rtibia 65.5395
rfoot 15.0795 -9.00396
rtoes 6.54505
lfemur -27.8667 -0.745767 -8.45315
ltibia 17.2
lfoot -4.81041 8.1304
ltoes -12.8002
791
root -51.2297 17.8328 2.40967 459.386 -89.5937 -456.974
lowerback -2.34075 -0.211049 -0.42847
upperback -1.24254 -0.339261 3.67705
thorax 0.0620803 -0.181686 4.01591
lowerneck -15.8877 6.68578 -0.274816
upperneck 32.846 10.53 -3.94189
head 14.0939 3.64928 0.134764
rclavicle -1.11816e-015 4.77083e-015
rhumerus 10.6117 17.3214 -77.7027
rradius 70.6156
rwrist -15.4819
rhand -18.3297 -29.4436
rfingers 7.12502
rthumb 7.95212 -419.274
lclavicle -1.11816e-015 4.77083e-015
lhumerus -4.67401 7.43085 87.5954
lradius 56.2541
lwrist 43.1932
lhand 1.12438 41.9308
lfingers 7.12502
lthumb 26.6669 70.0723
rfemur -14.7028 -4.28122 16.7792
rtibia 65.5395
rfoot 15.0795 -9.00396
rtoes 6.54505
lfemur -27.8667 -0.745767 -8.45315
ltibia 17.2
lfoot -4.81041 8.1304
ltoes -12.8002
